<svg id="Layer_1" data-name="Layer 1" xmlns="http://www.w3.org/2000/svg" viewBox="0 0 167.41 46"><path d="M93.32,17.77V39.66H87.78V34.84a14.08,14.08,0,0,1-11.31,5.69c-6,0-12.38-4.18-12.38-11.38,0-6.48,5.68-11.09,13.17-11.09a18.61,18.61,0,0,1,10,2.74V19c0-6.91-5.76-7.85-8.42-7.85A23.05,23.05,0,0,0,68.91,14l-2.52-5A24.74,24.74,0,0,1,78.85,5.53C88.64,5.53,93.32,11.58,93.32,17.77Zm-6,12.39V25.48a15.91,15.91,0,0,0-8.71-2.38c-5.19,0-8.43,2.59-8.43,6,0,4.32,3.89,6.05,7.64,6.05C83.67,35.2,87.27,30.16,87.27,30.16Z"/><path d="M131,34.12a18,18,0,0,1-13.61,6.41c-9.8,0-17.14-7.71-17.14-17.5s7.34-17.5,17.14-17.5a17.85,17.85,0,0,1,13.25,6l-4.11,3.67a12.29,12.29,0,0,0-9.14-4c-6.7,0-11.09,5.33-11.09,11.88s4.39,11.88,11.09,11.88a12.21,12.21,0,0,0,9.72-4.75Z"/><path d="M167.41,23.25a19.41,19.41,0,0,1-.07,1.94H140.48c.36,5,5.18,9.72,11.45,9.72a12.85,12.85,0,0,0,10-4.9l3.81,4a18.54,18.54,0,0,1-13.82,6.55c-10.08,0-17.36-7.63-17.36-17.5s6.63-17.5,16.64-17.5C160.5,5.53,167.41,12.52,167.41,23.25Zm-5.91-3.1a10,10,0,0,0-10.29-9,10.32,10.32,0,0,0-10.59,9Z"/><polygon points="26.56 0 0 46 53.12 46 26.56 0"/></svg>